<mxfile host="app.diagrams.net" modified="2023-11-22T05:55:05.569Z" agent="Mozilla/5.0 (Macintosh; Intel Mac OS X 10_15_7) AppleWebKit/537.36 (KHTML, like Gecko) Chrome/119.0.0.0 Safari/537.36" version="22.1.3" etag="6lRsm6M-NzixUaff4e9O" type="github">
  <diagram name="Page-1" id="X96AjZ0Pn8ZLHB-zb5-W">
    <mxGraphModel>
      <root>
        <mxCell id="0" />
        <mxCell id="1" parent="0" />
      </root>
    </mxGraphModel>
  </diagram>
</mxfile>
